<svg data-v-423bf9ae="" xmlns="http://www.w3.org/2000/svg" viewBox="0 0 455 90" class="iconLeft"><!----><defs data-v-423bf9ae=""><linearGradient data-v-423bf9ae="" gradientTransform="rotate(25)" id="9213f448-e06e-41b0-8ce1-3442e5012ae0" x1="0%" y1="0%" x2="100%" y2="0%"><stop data-v-423bf9ae="" offset="0%" style="stop-color: rgb(60, 17, 67); stop-opacity: 1;"></stop><stop data-v-423bf9ae="" offset="100%" style="stop-color: rgb(194, 81, 120); stop-opacity: 1;"></stop></linearGradient></defs><!----><g data-v-423bf9ae="" id="438266d4-c8a1-4844-a2c2-154fb4c57071" fill="#ffffff" transform="matrix(5.5147058243466915,0,0,5.5147058243466915,103.05146479759378,-7.003676530154209)"><path d="M1.26 14.87L10.85 14.87L10.85 13.33L3.75 13.33L3.75 10.21L10.02 10.21L10.02 8.68L3.75 8.68L3.75 5.52L10.43 5.52L10.43 3.99L1.26 3.99ZM24.25 3.99L21.76 3.99L21.76 12.49L16.07 3.99L12.67 3.99L12.67 14.87L15.16 14.87L15.16 6.37L20.85 14.87L24.25 14.87ZM26.77 14.87L36.36 14.87L36.36 13.33L29.26 13.33L29.26 10.21L35.53 10.21L35.53 8.68L29.26 8.68L29.26 5.52L35.94 5.52L35.94 3.99L26.77 3.99ZM38.18 14.87L40.67 14.87L40.67 10.21L46.94 10.21L46.94 8.68L40.67 8.68L40.67 5.52L47.33 5.52L47.33 3.99L38.18 3.99ZM47.75 5.52L52.54 5.52L52.54 14.87L55.03 14.87L55.03 5.52L59.82 5.52L59.82 3.99L47.75 3.99ZM61.22 3.99L61.22 14.87L63.71 14.87L63.71 3.99Z"></path></g><!----><g data-v-423bf9ae="" id="a2c029e1-ad0c-431d-9815-cdc2f88cdee0" transform="matrix(2.8125,0,0,2.8125,0,0)" stroke="none" fill="#ffffff"><path d="M9.382 8.675h13.943v13.943L32 31.293V0H.707zM22.618 23.325H8.675V9.382L0 .707V32h31.293z"></path></g><!----></svg>